<svg width="162" height="54" viewBox="0 0 162 54" fill="none" xmlns="http://www.w3.org/2000/svg">
<path d="M6.51758 16.0273C8.97852 14.5039 10.959 13.3027 12.459 12.4238C13.9707 11.5449 14.8848 11.1055 15.2012 11.1055C15.5176 11.1055 15.6758 11.2285 15.6758 11.4746C15.6758 11.2285 15.3301 12.2598 14.6387 14.5684C13.9473 16.877 13.4023 18.8223 13.0039 20.4043C12.0312 24.1895 11.5449 27.3652 11.5449 29.9316C11.5449 33.1777 12.4531 34.8008 14.2695 34.8008C14.9961 34.8008 15.7871 34.502 16.6426 33.9043C17.498 33.3066 18.3125 32.5332 19.0859 31.584C19.8711 30.6348 20.6328 29.5801 21.3711 28.4199C22.7891 26.1699 23.8672 23.9609 24.6055 21.793C23.7734 21.6641 22.8008 21.166 21.6875 20.2988C21.1367 19.8652 20.668 19.2793 20.2812 18.541C19.9062 17.8027 19.7188 17.082 19.7188 16.3789C19.7188 15.6641 19.7891 15.043 19.9297 14.5156C20.0703 13.9766 20.2812 13.4609 20.5625 12.9688C21.1953 11.8672 22.1738 11.3164 23.498 11.3164C25.8652 11.3164 27.0488 14.2227 27.0488 20.0352C28.3145 19.8594 29.7617 19.3203 31.3906 18.418C32.0234 18.0781 32.6211 17.6914 33.1836 17.2578V19.2793C31.0742 20.6504 28.959 21.5117 26.8379 21.8633C26.3574 24.1133 25.5137 26.5273 24.3066 29.1055C23.0645 31.7656 21.4941 34.0508 19.5957 35.9609C18.6699 36.8867 17.627 37.625 16.4668 38.1758C15.3066 38.7266 14.1348 39.002 12.9512 39.002C11.7676 39.002 10.7539 38.7617 9.91016 38.2812C9.06641 37.8125 8.41016 37.1562 7.94141 36.3125C7.02734 34.6836 6.57031 32.6738 6.57031 30.2832C6.57031 27.8809 6.875 25.4844 7.48438 23.0938C8.10547 20.6914 8.79688 18.916 9.55859 17.7676C9.85156 17.334 10.168 16.8066 10.5078 16.1855C10.8594 15.5645 11.0352 15.1953 11.0352 15.0781C11.0352 14.9492 11.0176 14.8848 10.9824 14.8848C10.959 14.8848 10.8945 14.9199 10.7891 14.9902L8.76758 16.5371C8.56836 16.6543 8.05273 16.9707 7.2207 17.4863C4.66602 19.0684 2.55664 20.3633 0.892578 21.3711V19.4199C2.18164 18.6699 4.05664 17.5391 6.51758 16.0273ZM24.7812 19.9297L24.8164 19.2441C24.8164 17.5684 24.5176 16.2266 23.9199 15.2188C23.6152 14.7148 23.2695 14.4629 22.8828 14.4629C22.2383 14.4629 21.916 14.9551 21.916 15.9395C21.916 16.9121 22.1914 17.7793 22.7422 18.541C23.3047 19.291 23.9844 19.7539 24.7812 19.9297ZM48.3162 17.8027C47.6834 14.6621 46.6873 13.0918 45.328 13.0918C44.0389 13.1387 42.8026 13.4375 41.619 13.9883C40.4471 14.5391 39.4217 15.2598 38.5428 16.1504C37.6639 17.041 36.9022 18.0488 36.2577 19.1738C34.9334 21.459 34.2713 24.002 34.2713 26.8027C34.2713 29.6035 34.9745 31.8066 36.3807 33.4121C37.7987 35.0059 39.662 35.8027 41.9705 35.8027C43.787 35.8027 45.7147 35.3164 47.7537 34.3438C49.7928 33.3594 51.7791 31.9355 53.7127 30.0723V32.0234C48.7909 36.6758 44.1795 39.002 39.8787 39.002C36.2694 39.002 33.6209 37.4375 31.9334 34.3086C30.9725 32.4922 30.492 30.4355 30.492 28.1387C30.492 24.8457 31.4002 21.6641 33.2166 18.5938C34.4471 16.4961 36.1112 14.7734 38.2088 13.4258C40.3885 12.0195 42.9373 11.3164 45.8553 11.3164C47.6014 11.3164 49.0897 11.9199 50.3202 13.127C51.5506 14.334 52.1659 15.7227 52.1659 17.293C52.1659 17.9727 51.9022 18.4473 51.3748 18.7168C50.8475 18.9746 49.5467 19.6719 47.4725 20.8086C44.5662 22.4258 42.9959 23.2344 42.7616 23.2344C42.3045 23.2344 42.076 22.9941 42.076 22.5137C42.076 21.9395 43.1131 21.2012 45.1873 20.2988C45.9725 19.959 46.6873 19.5605 47.3319 19.1035C47.9881 18.6465 48.3162 18.2129 48.3162 17.8027Z" fill="#1C64F2"/>
<path d="M68.6865 27.1719C66.9785 26.4736 65.7056 25.6304 64.8677 24.6421C64.0298 23.6431 63.6109 22.6709 63.6109 21.7256C63.6109 20.7695 63.8042 19.9048 64.1909 19.1313C64.5884 18.3579 65.1524 17.6382 65.8828 16.9722C66.6133 16.3062 67.4673 15.7153 68.4448 15.1997C70.5396 14.0933 72.9512 13.54 75.6797 13.54C76.6465 13.54 78.2202 13.7388 80.4009 14.1362C82.5923 14.5337 84.0908 14.7324 84.8965 14.7324C85.7129 14.7324 86.4112 14.6519 86.9912 14.4907C87.5821 14.3296 88.1621 14.1309 88.7315 13.8945C89.3115 13.6475 89.7036 13.4971 89.9077 13.4434C89.5103 14.7861 88.7744 15.8496 87.7002 16.6338C86.6367 17.418 85.3906 17.8101 83.9619 17.8101C83.1992 17.8101 82.5064 17.7026 81.8833 17.4878C81.2603 17.2729 80.6641 17.0527 80.0947 16.8271C79.5254 16.6016 79.1226 16.4458 78.8862 16.3599C78.7681 16.9185 78.5962 17.7886 78.3706 18.9702C78.145 20.1411 77.9678 21.022 77.8389 21.6128C77.7207 22.2036 77.5381 23.0684 77.291 24.207C77.044 25.3457 76.8184 26.2588 76.6143 26.9463C76.4102 27.623 76.147 28.4824 75.8247 29.5244C75.5025 30.5557 75.1748 31.3936 74.8418 32.0381C74.5196 32.6826 74.1436 33.4131 73.7139 34.2295C73.2842 35.0352 72.8223 35.6851 72.3281 36.1792C71.8447 36.6733 71.313 37.1514 70.7329 37.6133C69.6157 38.4834 68.2515 38.9185 66.6402 38.9185C64.6314 38.9185 63.2725 38.1021 62.5635 36.4692C62.3809 36.0503 62.2896 35.6367 62.2896 35.2285C62.2896 33.5527 63.4336 32.7148 65.7217 32.7148C65.6035 33.3594 65.5445 34.0737 65.5445 34.8579C65.5445 35.6421 65.6734 36.2437 65.9312 36.6626C66.189 37.0708 66.6455 37.2964 67.3008 37.3394C68.0957 37.3394 68.8638 36.7378 69.605 35.5347C70.3462 34.3315 70.9961 32.8008 71.5547 30.9424C72.1133 29.084 72.6074 27.2363 73.0371 25.3994C73.4776 23.5625 73.875 21.8062 74.2295 20.1304C74.5947 18.4546 74.8579 17.4019 75.0191 16.9722C75.6851 16.2524 76.523 15.8926 77.5327 15.8926H77.565C76.7593 15.667 76.0235 15.5542 75.3574 15.5542C73.8643 15.5542 72.4302 15.8496 71.0552 16.4404C69.6802 17.0205 68.5899 17.7617 67.7842 18.6641C66.9785 19.5664 66.5757 20.4688 66.5757 21.3711C66.5757 22.6924 67.4351 23.7236 69.1538 24.4648C69.1538 24.9268 69.1001 25.4639 68.9927 26.0762C68.8853 26.6777 68.7832 27.043 68.6865 27.1719ZM84.5259 26.2534L86.4595 26.0278C86.771 26.0278 86.9268 26.103 86.9268 26.2534C86.9268 26.4038 86.5562 27.2471 85.815 28.7832C84.1177 32.2637 83.2691 34.3584 83.2691 35.0674C83.2691 35.0781 83.2637 35.1211 83.253 35.1963C83.253 35.2607 83.253 35.3145 83.253 35.3574C83.2637 35.3896 83.2744 35.438 83.2852 35.5024C83.2959 35.5669 83.312 35.6152 83.3335 35.6475C83.4087 35.7441 83.5161 35.7925 83.6558 35.7925C83.9351 35.7925 84.7891 35.1587 86.2178 33.8911C87.6572 32.6128 88.6402 31.6191 89.1665 30.9102V32.7148C85.3316 36.5498 82.7481 38.4673 81.416 38.4673C80.9434 38.4673 80.5889 38.2578 80.3526 37.8389C80.1162 37.4092 79.9981 36.9902 79.9981 36.582C79.9981 36.1738 80.0786 35.7065 80.2398 35.1802C80.4009 34.6431 80.6157 34.0308 80.8843 33.3433C81.1636 32.6558 81.4214 32.0327 81.6577 31.4741C81.8941 30.9155 82.1519 30.314 82.4312 29.6694C82.7212 29.0142 82.8877 28.6328 82.9307 28.5254C82.3184 29.1484 81.604 29.8306 80.7876 30.5718C79.982 31.313 79.2246 32.0488 78.5156 32.7793V30.9746L81.7866 27.5747C80.4761 27.2524 79.6275 26.7476 79.2407 26.0601C79.1548 25.9204 79.1118 25.7969 79.1118 25.6895C79.1118 24.9375 79.3965 24.2769 79.9658 23.7075C80.5352 23.1382 81.2925 22.8535 82.2378 22.8535C82.7212 22.8535 82.9629 23.1382 82.9629 23.7075C82.9629 24.0405 82.8662 24.4058 82.6729 24.8032C82.4795 25.1899 82.2486 25.4531 81.98 25.5928C82.4741 26.0332 83.3228 26.2534 84.5259 26.2534ZM89.6499 38.4673C88.3609 38.4673 87.5659 37.5596 87.2652 35.7441C87.2007 35.3037 87.1685 34.8472 87.1685 34.3745C87.1685 33.2036 87.4585 32.022 88.0386 30.8296C88.6187 29.6372 89.3814 28.5737 90.3267 27.6392C91.2827 26.7046 92.4214 25.9419 93.7427 25.3511C95.0747 24.7603 96.4336 24.4648 97.8194 24.4648C98.4961 24.4648 99.3985 24.6421 100.526 24.9966C100.516 25.0718 100.408 25.5659 100.204 26.479C100 27.3813 99.7959 28.3052 99.5918 29.2505C99.0332 31.8394 98.7539 33.4453 98.7539 34.0684C98.7539 34.6914 98.9151 35.0029 99.2373 35.0029C99.9463 35.0029 101.59 33.6387 104.168 30.9102V32.7148C102.535 34.4014 100.978 35.7817 99.4951 36.856C98.0235 37.9302 97.0406 38.4673 96.5464 38.4673C95.73 38.4673 95.3218 37.7637 95.3218 36.3564C95.3218 35.8945 95.3648 35.3735 95.4507 34.7935C94.6773 35.8032 93.7749 36.668 92.7437 37.3877C91.7232 38.1074 90.6919 38.4673 89.6499 38.4673ZM90.6006 33.4722C90.6006 35.0835 91.127 35.8892 92.1797 35.8892C92.6309 35.8892 93.1841 35.6528 93.8394 35.1802C94.5054 34.7075 95.107 34.1865 95.6441 33.6172L97.4971 25.6895C96.3369 25.6895 95.2144 26.103 94.1294 26.9302C93.0445 27.7573 92.1851 28.7725 91.5513 29.9756C90.9175 31.1787 90.6006 32.3442 90.6006 33.4722ZM105.908 34.7935C105.908 35.5024 106.096 35.8569 106.472 35.8569C106.709 35.8569 107.45 35.2446 108.696 34.02C109.953 32.7847 110.952 31.7588 111.693 30.9424V32.7471C109.577 34.8311 108.159 36.1738 107.439 36.7754C106.128 37.8604 105.006 38.4243 104.071 38.4673C103.599 38.4673 103.244 38.2578 103.008 37.8389C102.772 37.4092 102.653 36.8613 102.653 36.1953C102.653 35.5293 102.954 33.9663 103.556 31.5063C104.157 29.0464 104.555 27.5586 104.748 27.043C104.952 26.5273 105.119 26.1675 105.248 25.9634C105.376 25.7593 105.538 25.5981 105.731 25.48C105.924 25.3618 106.091 25.2705 106.23 25.2061C106.381 25.1309 106.606 25.0771 106.907 25.0449C107.326 25.0127 107.842 24.9966 108.454 24.9966C106.757 30.4321 105.908 33.6978 105.908 34.7935ZM108.68 20.7104C107.917 20.7104 107.536 20.3237 107.536 19.5503C107.536 19.0132 107.734 18.4976 108.132 18.0034C108.54 17.4985 109.018 17.2461 109.566 17.2461C110.114 17.2461 110.522 17.3535 110.791 17.5684C111.059 17.7832 111.193 18.1108 111.193 18.5513C111.193 18.981 110.936 19.4482 110.42 19.9531C109.915 20.458 109.335 20.7104 108.68 20.7104ZM125.196 30.9746V32.7793C123.488 34.5195 121.973 35.9053 120.652 36.9365C119.341 37.957 118.466 38.4673 118.025 38.4673C117.22 38.4673 116.817 38.0161 116.817 37.1138C116.817 36.2114 117.016 35.1372 117.413 33.8911C117.821 32.6343 118.224 31.501 118.622 30.4912C119.03 29.4707 119.234 28.7886 119.234 28.4448C119.234 28.1011 119.169 27.8486 119.041 27.6875C118.922 27.5264 118.777 27.4458 118.605 27.4458C117.993 27.4458 117.333 27.8755 116.624 28.7349C115.915 29.5835 115.281 30.6147 114.722 31.8286C113.562 34.3423 112.799 36.3994 112.434 38H109.356C109.367 36.8398 109.695 34.917 110.339 32.2314C110.984 29.5459 111.559 27.564 112.063 26.2856C112.268 25.77 112.558 25.4263 112.934 25.2544C113.32 25.0825 113.836 24.9966 114.48 24.9966H115.56C114.776 27.7036 114.196 29.6533 113.82 30.8457C114.54 29.5029 115.582 28.1387 116.946 26.7529C117.612 26.0869 118.337 25.5391 119.121 25.1094C119.905 24.6797 120.647 24.4648 121.345 24.4648C122.397 24.4648 122.924 25.0933 122.924 26.3501C122.924 26.9517 122.543 28.3804 121.78 30.6362C121.028 32.8813 120.652 34.1221 120.652 34.3584C120.652 34.584 120.716 34.6968 120.845 34.6968C120.985 34.6968 121.162 34.627 121.377 34.4873C121.603 34.3369 122.242 33.7622 123.294 32.7632C124.347 31.7534 124.981 31.1572 125.196 30.9746ZM126.984 34.7935C126.984 35.5024 127.172 35.8569 127.548 35.8569C127.785 35.8569 128.526 35.2446 129.772 34.02C131.029 32.7847 132.028 31.7588 132.769 30.9424V32.7471C130.653 34.8311 129.235 36.1738 128.515 36.7754C127.205 37.8604 126.082 38.4243 125.147 38.4673C124.675 38.4673 124.32 38.2578 124.084 37.8389C123.848 37.4092 123.73 36.8613 123.73 36.1953C123.73 35.5293 124.03 33.9663 124.632 31.5063C125.233 29.0464 125.631 27.5586 125.824 27.043C126.028 26.5273 126.195 26.1675 126.324 25.9634C126.453 25.7593 126.614 25.5981 126.807 25.48C127.001 25.3618 127.167 25.2705 127.307 25.2061C127.457 25.1309 127.683 25.0771 127.983 25.0449C128.402 25.0127 128.918 24.9966 129.53 24.9966C127.833 30.4321 126.984 33.6978 126.984 34.7935ZM129.756 20.7104C128.993 20.7104 128.612 20.3237 128.612 19.5503C128.612 19.0132 128.811 18.4976 129.208 18.0034C129.616 17.4985 130.094 17.2461 130.642 17.2461C131.19 17.2461 131.598 17.3535 131.867 17.5684C132.135 17.7832 132.27 18.1108 132.27 18.5513C132.27 18.981 132.012 19.4482 131.496 19.9531C130.991 20.458 130.411 20.7104 129.756 20.7104ZM146.272 30.9746V32.7793C144.564 34.5195 143.049 35.9053 141.728 36.9365C140.417 37.957 139.542 38.4673 139.102 38.4673C138.296 38.4673 137.893 38.0161 137.893 37.1138C137.893 36.2114 138.092 35.1372 138.489 33.8911C138.897 32.6343 139.3 31.501 139.698 30.4912C140.106 29.4707 140.31 28.7886 140.31 28.4448C140.31 28.1011 140.246 27.8486 140.117 27.6875C139.999 27.5264 139.854 27.4458 139.682 27.4458C139.069 27.4458 138.409 27.8755 137.7 28.7349C136.991 29.5835 136.357 30.6147 135.798 31.8286C134.638 34.3423 133.876 36.3994 133.51 38H130.433C130.443 36.8398 130.771 34.917 131.416 32.2314C132.06 29.5459 132.635 27.564 133.14 26.2856C133.344 25.77 133.634 25.4263 134.01 25.2544C134.396 25.0825 134.912 24.9966 135.557 24.9966H136.636C135.852 27.7036 135.272 29.6533 134.896 30.8457C135.616 29.5029 136.658 28.1387 138.022 26.7529C138.688 26.0869 139.413 25.5391 140.197 25.1094C140.981 24.6797 141.723 24.4648 142.421 24.4648C143.474 24.4648 144 25.0933 144 26.3501C144 26.9517 143.619 28.3804 142.856 30.6362C142.104 32.8813 141.728 34.1221 141.728 34.3584C141.728 34.584 141.792 34.6968 141.921 34.6968C142.061 34.6968 142.238 34.627 142.453 34.4873C142.679 34.3369 143.318 33.7622 144.371 32.7632C145.423 31.7534 146.057 31.1572 146.272 30.9746ZM153.265 44.3809C152.599 45.1436 151.901 45.7397 151.17 46.1694C150.44 46.5991 149.785 46.814 149.205 46.814C148.625 46.814 148.109 46.7334 147.658 46.5723C147.217 46.4219 146.831 46.1641 146.498 45.7988C146.175 45.4336 146.014 45.0845 146.014 44.7515C146.014 44.4185 146.03 44.1768 146.063 44.0264C146.105 43.876 146.186 43.7202 146.304 43.5591C146.422 43.3979 146.514 43.2637 146.578 43.1562C146.653 43.0596 146.798 42.9199 147.013 42.7373C147.228 42.5547 147.373 42.4312 147.448 42.3667C147.523 42.3022 147.706 42.1572 147.996 41.9316C148.286 41.7168 148.463 41.5825 148.528 41.5288L152.991 38.0967L153.507 35.3574C152.132 36.582 150.988 37.4092 150.075 37.8389C149.172 38.2578 148.324 38.4673 147.529 38.4673C146.734 38.4673 146.138 38.1343 145.74 37.4683C145.354 36.8022 145.16 36.0234 145.16 35.1318C145.16 34.2295 145.3 33.2734 145.579 32.2637C145.869 31.2432 146.283 30.271 146.82 29.3472C147.368 28.4233 148.001 27.5962 148.721 26.8657C149.441 26.1353 150.279 25.5552 151.235 25.1255C152.191 24.6851 153.163 24.4648 154.151 24.4648C155.14 24.4648 156.762 24.6743 159.018 25.0933L156.552 35.5186C156.842 35.25 157.277 34.8418 157.857 34.2939C158.448 33.7354 158.867 33.3379 159.114 33.1016C159.759 32.5107 160.479 31.7803 161.273 30.9102V32.7148L156.214 37.6294C155.709 40.4116 154.726 42.6621 153.265 44.3809ZM152.782 39.8853L150.139 42.125C150.075 42.1787 149.946 42.2808 149.752 42.4312C149.559 42.5815 149.419 42.6943 149.334 42.7695C149.248 42.8447 149.129 42.9629 148.979 43.124C148.829 43.2852 148.721 43.4355 148.657 43.5752C148.463 43.9727 148.367 44.3809 148.367 44.7998C148.367 45.2295 148.458 45.5249 148.641 45.686C148.834 45.8472 149.14 45.9277 149.559 45.9277C150.418 45.9277 151.117 45.3745 151.654 44.2681C152.202 43.1616 152.578 41.7007 152.782 39.8853ZM148.689 32.7793C148.689 34.8525 149.21 35.8892 150.252 35.8892C151.176 35.8892 152.341 35.0942 153.749 33.5044L155.618 25.6572C154.834 25.4639 154.307 25.3672 154.039 25.3672C153.319 25.3672 152.621 25.6035 151.944 26.0762C151.267 26.5488 150.698 27.145 150.236 27.8647C149.205 29.4438 148.689 31.082 148.689 32.7793Z" fill="url(#paint0_linear_54_5253)"/>
<defs>
<linearGradient id="paint0_linear_54_5253" x1="17.3453" y1="27" x2="180.636" y2="49.7097" gradientUnits="userSpaceOnUse">
<stop offset="0.48" stop-color="#1A56DB"/>
<stop offset="1" stop-color="#3D5384"/>
</linearGradient>
</defs>
</svg>
